<?xml version="1.0" encoding="utf-8"?><svg xmlns="http://www.w3.org/2000/svg" xmlns:xlink="http://www.w3.org/1999/xlink"><symbol viewBox="0 0 22 22" id="arrow-select" xmlns="http://www.w3.org/2000/svg"><path fill-rule="evenodd" clip-rule="evenodd" d="M5.88 9.654a.688.688 0 01.966-.108L11 12.87l4.154-3.324a.688.688 0 01.859 1.074l-4.584 3.667a.69.69 0 01-.859 0L5.987 10.62a.687.687 0 01-.107-.966z"/></symbol><symbol viewBox="0 0 22 22" id="arrow-select-total" xmlns="http://www.w3.org/2000/svg"><path fill-rule="evenodd" clip-rule="evenodd" d="M5.88 9.654a.688.688 0 01.966-.108L11 12.87l4.154-3.324a.688.688 0 01.859 1.074l-4.584 3.667a.69.69 0 01-.859 0L5.987 10.62a.687.687 0 01-.107-.966z"/></symbol><symbol viewBox="0 0 24 24" id="search" xmlns="http://www.w3.org/2000/svg"><path fill-rule="evenodd" clip-rule="evenodd" d="M1.25 11.5c0-5.66 4.59-10.25 10.25-10.25S21.75 5.84 21.75 11.5c0 2.56-.939 4.902-2.491 6.698l3.271 3.272a.75.75 0 11-1.06 1.06l-3.272-3.271A10.21 10.21 0 0111.5 21.75c-5.66 0-10.25-4.59-10.25-10.25zM11.5 2.75a8.75 8.75 0 100 17.5 8.75 8.75 0 000-17.5z"/></symbol></svg>