<svg width="59" height="57" viewBox="0 0 59 57" fill="none" xmlns="http://www.w3.org/2000/svg">
<path d="M4.15228 34.4396C2.60061 31.6502 1.82477 30.2555 1.82477 28.7328C1.82477 27.2101 2.60061 25.8154 4.15228 23.026L7.8439 16.3897L11.7453 9.87456C13.3851 7.13608 14.205 5.76684 15.5237 5.00548C16.8424 4.24413 18.4382 4.21868 21.6297 4.16777L29.2227 4.04667L36.8157 4.16777C40.0072 4.21868 41.603 4.24413 42.9217 5.00548C44.2404 5.76684 45.0603 7.13608 46.7001 9.87456L50.6015 16.3897L54.2931 23.026C55.8448 25.8154 56.6206 27.2101 56.6206 28.7328C56.6206 30.2555 55.8448 31.6502 54.2931 34.4396L50.6015 41.0759L46.7001 47.591C45.0603 50.3295 44.2404 51.6987 42.9217 52.4601C41.603 53.2215 40.0072 53.2469 36.8157 53.2978L29.2227 53.4189L21.6297 53.2978C18.4382 53.2469 16.8425 53.2215 15.5237 52.4601C14.205 51.6987 13.3851 50.3295 11.7453 47.591L7.8439 41.0759L4.15228 34.4396Z" stroke="#222222" stroke-width="2.93483"/>
<circle cx="28.5582" cy="28.8989" r="8.4735" stroke="#222222" stroke-width="2.93483"/>
</svg>
