<svg width="89" height="58" viewBox="0 0 89 58" fill="none" xmlns="http://www.w3.org/2000/svg">
<path d="M20.5439 28.1952L4.48976 21.7736C2.96724 21.1646 2.96724 19.0094 4.48976 18.4004L41.2881 3.68101C43.4007 2.83597 45.7574 2.83597 47.87 3.68101L84.6684 18.4004C86.1909 19.0094 86.1909 21.1646 84.6684 21.7736L68.6143 28.1952" stroke="#222222" stroke-width="4.43059" stroke-linecap="round" stroke-linejoin="round"/>
<path d="M53.4402 33.3787C53.4402 34.6022 54.432 35.594 55.6555 35.594C56.879 35.594 57.8708 34.6022 57.8708 33.3787H53.4402ZM53.4402 6.79517V33.3787H57.8708V6.79517H53.4402Z" fill="#222222"/>
<path d="M20.2108 28.9481V46.6704L44.5791 55.5316L68.9473 46.6704V28.9481C68.9473 28.9481 66.732 20.0869 44.5791 20.0869C22.4261 20.0869 20.2108 28.9481 20.2108 28.9481Z" stroke="#222222" stroke-width="4.43059" stroke-linecap="round" stroke-linejoin="round"/>
</svg>
