<svg width="69" height="49" viewBox="0 0 69 49" fill="none" xmlns="http://www.w3.org/2000/svg">
<path d="M66.0965 42.41C67.3827 37.6098 67.5474 32.578 66.5779 27.704C65.6084 22.8299 63.5306 18.2442 60.5054 14.3016C57.4801 10.359 53.5884 7.16514 49.1313 4.96716C44.6743 2.76918 39.7713 1.62598 34.8018 1.62598C29.8322 1.62598 24.9293 2.76918 20.4722 4.96716C16.0152 7.16514 12.1235 10.359 9.0982 14.3016C6.07292 18.2442 3.99516 22.8299 3.02565 27.704C2.05614 32.578 2.22086 37.6098 3.50708 42.41" stroke="#222222" stroke-width="2.98113" stroke-linecap="round"/>
<path d="M37.5591 36.1208C39.3139 38.6744 38.0798 42.5701 34.8027 44.8221C31.5256 47.0741 27.4465 46.8296 25.6917 44.276C23.7332 41.426 16.7456 24.7786 12.9075 15.4863C12.2975 14.0095 14.1058 12.7668 15.2658 13.8657C22.5647 20.7798 35.6007 33.2709 37.5591 36.1208Z" stroke="#222222" stroke-width="2.98113"/>
<path d="M34.8018 1.62598V8.82568" stroke="#222222" stroke-width="2.98113" stroke-linecap="round"/>
<path d="M11.8914 11.1143L16.9824 16.2052" stroke="#222222" stroke-width="2.98113" stroke-linecap="round"/>
<path d="M57.7121 11.1143L52.6212 16.2052" stroke="#222222" stroke-width="2.98113" stroke-linecap="round"/>
<path d="M66.0965 42.4091L59.1421 40.5456" stroke="#222222" stroke-width="2.98113" stroke-linecap="round"/>
<path d="M3.50703 42.4091L10.4614 40.5456" stroke="#222222" stroke-width="2.98113" stroke-linecap="round"/>
</svg>
