<svg width="1277" height="1689" viewBox="0 0 1277 1689" fill="none" xmlns="http://www.w3.org/2000/svg">
<g clip-path="url(#clip0_166_9)">
<rect width="1555" height="1689" fill="white"/>
<path fill-rule="evenodd" clip-rule="evenodd" d="M312.104 1051.11C312.104 1051.11 408.605 957.791 454.494 921.398C491.631 891.955 508.819 878.533 522.507 868.028C545.584 850.362 567.866 851.052 581.925 875.827C601.076 909.568 607.761 931.902 626.276 987.023C644.738 1042.14 653.332 1076.68 655.508 1086.34C657.683 1095.99 652.165 1093.34 647.815 1087.71C643.465 1082.09 594.074 1023.36 584.206 1012.75C567.389 994.768 514.337 944.369 503.833 937.579C496.299 932.751 488.448 928.454 468.129 943.839C416.775 982.832 361.176 1018.32 312.157 1051.06L312.104 1051.11Z" fill="#004975" fill-opacity="0.1"/>
<path fill-rule="evenodd" clip-rule="evenodd" d="M635.719 790.732C635.719 790.732 637.788 763.305 632.324 739.432C626.86 715.611 620.069 693.118 575.293 643.833C530.518 594.495 462.346 566.378 462.346 566.378C470.145 579.64 470.834 579.428 479.111 592.585C488.766 607.917 492.692 617.944 497.095 638.315L500.225 655.716C539.218 680.12 546.911 683.303 575.399 708.131C603.941 732.959 617.47 758 624.26 771.209C631.051 784.472 635.772 790.679 635.772 790.679L635.719 790.732Z" fill="#004975" fill-opacity="0.1"/>
<path fill-rule="evenodd" clip-rule="evenodd" d="M706.596 774.074C706.596 774.074 708.665 746.594 703.201 722.773C697.737 698.953 690.946 676.459 646.17 627.122C601.395 577.837 533.223 549.719 533.223 549.719C541.022 562.982 541.711 562.77 549.987 575.927C559.643 591.259 563.569 601.286 567.972 621.657L571.102 639.058C610.042 663.462 617.735 666.698 646.276 691.473C674.818 716.301 688.346 741.341 695.137 754.604C701.875 767.814 706.649 774.074 706.649 774.074H706.596Z" fill="#004975" fill-opacity="0.1"/>
<path fill-rule="evenodd" clip-rule="evenodd" d="M771.319 751.262C771.319 751.262 773.388 723.781 767.924 699.961C762.46 676.141 755.669 653.647 710.893 604.309C666.118 555.025 597.946 526.907 597.946 526.907C605.745 540.17 606.435 539.958 614.711 553.115C624.366 568.447 628.292 578.42 632.695 598.845L635.825 616.246C674.818 640.597 682.458 643.833 711 668.661C739.541 693.489 753.07 718.529 759.86 731.739C766.598 745.002 771.372 751.209 771.372 751.209L771.319 751.262Z" fill="#004975" fill-opacity="0.1"/>
<path fill-rule="evenodd" clip-rule="evenodd" d="M126.9 644.629L151.728 627.758C151.728 627.758 188.493 613.487 233.269 608.554C278.097 603.567 317.833 607.333 351.203 616.83C391.787 628.448 404.467 654.231 406.27 682.932C410.355 746.54 389.93 770.944 356.349 799.168C320.857 828.982 284.357 845.11 264.994 852.431C237.141 862.988 222.128 867.286 199.528 872.803C189.66 875.19 192.896 890.469 195.018 902.193C199.687 928.136 218.202 967.765 233.905 989.888C249.609 1012.06 279.848 1046.71 283.509 1051.11C287.169 1055.51 284.729 1057.69 280.007 1056.57C263.72 1052.81 243.295 1038.16 210.244 1007.82C176.715 976.996 153.903 924.581 154.487 876.676C154.752 857.736 157.776 817.683 162.073 784.95C163.028 777.576 170.031 775.082 174.965 778.902C179.899 782.722 216.345 817.576 223.507 823.518C230.669 829.407 235.338 833.174 251.996 823.094C264.145 815.72 321.759 788.504 343.351 745.479C364.943 702.455 346.11 667.812 319.531 649.509C302.13 637.52 242.393 637.414 200.748 640.756C170.668 643.143 174.116 645 171.888 669.404C169.978 689.935 166.583 717.946 164.301 738.477C164.301 738.477 143.028 728.927 135.759 716.938C129.234 706.168 109.817 672.428 107.748 668.024C105.626 663.621 101.011 661.552 101.011 661.552C65.7311 652.427 46.7386 634.708 29.6029 598.951C10.292 558.579 15.7564 521.549 15.7564 517.889C15.7564 514.228 3.55447 496.615 3.55447 496.615C3.55447 496.615 -0.0530526 491.734 0.159154 478.896C0.31831 466.057 24.3508 437.516 87.4824 402.342L178.095 351.89C202.286 348.018 265.206 349.132 265.895 349.132C275.498 349.132 303.297 344.357 333.112 326.744C362.927 309.131 399.374 291.04 439.799 294.33L504.31 299.529L478.951 313.693C472.903 317.036 450.356 328.548 429.454 339.37C379.055 365.419 313.111 400.91 313.111 400.91L190.986 371.095C147.166 419.531 84.2992 486.217 62.3889 510.408C40.4785 534.6 46.2081 539.374 57.5612 565.635C63.6091 579.641 74.7499 595.662 85.7316 605.901L127.006 644.469L126.9 644.629Z" fill="#004975" fill-opacity="0.1"/>
<path fill-rule="evenodd" clip-rule="evenodd" d="M666.861 188.014L641.714 118.835C636.94 105.679 631.21 60.1604 632.748 32.945L633.863 13.369C633.863 13.369 649.141 0 688.453 0C727.764 0 736.465 2.33426 774.821 15.2258C813.177 28.1173 860.818 51.513 905.169 91.5138C949.573 131.462 969.468 215.23 970.688 221.808C971.908 228.387 1044.64 237.671 1145.87 223.665C1203.74 215.654 1260.72 191.038 1315.21 158.146C1321.52 235.708 1320.78 223.028 1321.73 243.665C1325.55 327.593 1285.87 405.366 1232.6 470.567C1240.83 482.344 1279.13 540.701 1351.33 567.173C1423.54 593.646 1497.01 598.262 1555 592.956C1531.82 645.902 1483.27 715.664 1461.36 741.501C1439.45 767.284 1363.8 829.884 1325.39 842.511C1319.72 844.367 1301.84 850.468 1286.13 855.296C1274.78 858.797 1266.45 863.201 1270.43 872.113C1276.48 885.907 1305.5 951.213 1298.07 1012.75C1290.64 1074.29 1261.25 1114.66 1214.57 1154.67C1181.09 1183.37 1135.31 1209.36 1108.2 1225.7C1075.57 1245.38 1039.5 1274.08 995.039 1324.22C928.671 1399.13 938.963 1487.03 941.51 1508.2C944.109 1529.37 963.42 1567.78 963.42 1567.78C963.42 1567.78 873.763 1519.66 833.39 1476.26C804.265 1445.02 780.922 1393.03 775.405 1376C756.996 1319.23 736.73 1426.4 736.889 1461.99C737.048 1497.59 744.157 1558.55 756.89 1591.7C773.654 1635.47 793.973 1681.84 802.992 1688.05C812.01 1694.25 633.438 1666.77 540.651 1610.54C500.543 1586.24 463.619 1552.92 433.751 1514.89C394.546 1464.91 367.596 1406.82 361.76 1350.21C351.468 1250.58 364.731 1221.93 381.442 1179.65C406.748 1115.73 466.272 1059.28 510.782 1024.9C496.777 1064.85 481.073 1096.79 466.113 1135.83C439.852 1204.48 416.085 1260.66 430.25 1331.65C443.937 1400.29 461.285 1439.66 502.135 1479.82C527.865 1505.12 558.052 1529.63 584.312 1541.46C634.287 1563.96 659.911 1570.11 659.911 1570.11C659.911 1570.11 672.325 1572.76 677.153 1571.6C681.98 1570.43 686.172 1568.79 686.331 1562.53C686.49 1556.21 680.866 1522.47 682.935 1507.25C685.004 1492.02 693.121 1423.69 715.35 1389.58C737.579 1355.52 756.996 1342.04 762.407 1338.12C767.818 1334.19 751.266 1276.1 779.012 1211.91C806.758 1147.72 836.414 1113.97 836.414 1113.97C836.414 1113.97 819.544 1139.76 814.504 1200.02C808.933 1266.82 808.562 1319.07 851.587 1395.25C871.163 1430 873.391 1411.49 883.789 1374.4C894.187 1337.27 912.968 1305.7 956.629 1258.91C1000.29 1212.17 1086.71 1177.96 1104.91 1167.93C1138.7 1149.25 1154.09 1136.79 1170.32 1124.27C1186.56 1111.75 1227.09 1070.58 1243.8 1019.49C1260.56 968.402 1260.3 904.156 1242.37 855.084C1224.43 806.011 1214.94 783.942 1214.94 783.942L1235.89 811.9C1235.89 811.9 1254.62 843.412 1257.33 845.004C1260.72 847.02 1264.28 846.808 1271.65 843.572C1298.12 832.006 1345.55 793.65 1356.32 784.101C1378.07 764.843 1386.61 757.257 1410.22 724.259C1419.4 711.473 1429.37 688.714 1433.94 680.067C1443.59 661.711 1443.06 652.852 1406.72 642.506C1346.35 625.318 1267.72 573.964 1243.43 537.305C1219.13 500.647 1218.97 499.427 1215.26 490.991C1191.54 517.517 1165.92 541.709 1140.72 562.982C1071.75 621.233 1004.06 652.958 1004.06 652.958C1004.06 652.958 1031.75 631.472 1043.95 617.572C1056.21 603.673 1143.05 515.66 1173.98 465.368C1181.3 453.431 1211.54 416.507 1238.39 339.954C1243.27 326.001 1247.57 298.096 1247.62 290.032C1247.72 273.799 1248.89 270.563 1245.76 249.979L1195.26 259.475C1186.61 273.799 1176.95 291.04 1160.08 322.871C1139.6 361.493 1116.05 401.281 1109.31 412.528C1080.77 460.434 1052.12 501.867 1023.74 532.743C1006.02 551.948 984.322 578.579 954.826 600.967C954.826 600.967 982.678 562.133 1009.26 519.321C1026.98 490.832 1043 460.54 1054.09 438.842C1081.78 384.57 1094.67 308.494 1095.94 301.173C1097.32 293.056 1099.6 277.937 1099.44 273.586C1099.23 267.539 1096 268.44 1091.75 268.069C1087.51 267.698 1081.57 268.228 1074.09 267.963C1074.09 267.963 1074.09 267.114 1069.89 275.072C1065.7 283.03 1039.92 333.959 1033.82 344.888C1015.15 378.151 999.707 403.669 980.237 431.202C967.293 449.505 950.422 464.254 931.005 484.148C931.005 484.148 958.433 430.884 974.826 398.788C991.272 366.692 993.713 329.556 994.561 299.582C995.41 269.661 991.856 257.034 991.856 257.034L965.914 253.374C963.579 253.056 962.73 253.215 959.07 263.241C955.887 271.995 950.21 285.841 939.441 304.728C924.003 331.784 890.102 376.931 872.012 396.507C842.356 428.444 811.745 454.068 811.745 454.068C811.745 454.068 821.719 429.929 830.419 410.725C839.12 391.52 852.011 348.124 858.802 289.926C865.54 231.729 855.566 188.014 842.992 138.358C830.419 88.7021 805.591 62.6007 790.471 44.7224C775.299 26.8441 771.107 21.9103 767.606 22.5469C764.052 23.2365 750.523 30.8229 732.433 51.9905C714.395 73.1049 700.336 98.888 693.758 121.488C687.71 142.496 688.559 154.274 688.665 175.176C688.771 193.373 695.137 194.062 695.137 194.062C695.137 194.062 756.359 207.272 768.296 210.933C780.232 214.593 773.76 223.824 773.76 223.824L752.486 291.677L728.242 372.74C728.242 372.74 727.923 373.164 725.005 343.349C719.223 284.25 719.912 299.104 714.873 262.021C712.591 245.257 703.997 233.745 672.431 224.355C645.693 216.397 628.292 213.532 552.64 212.843C521.074 212.524 483.832 219.368 452.001 224.938C424.892 229.713 389.135 238.944 363.617 246.477C296.453 266.318 238.468 293.428 172.684 322.871C172.684 322.871 182.71 311.094 187.167 305.364C191.623 299.688 208.228 286.637 225.735 275.815C243.242 265.045 288.018 238.36 322.077 224.302C372.689 203.399 402.345 199.261 442.346 189.924C416.934 158.146 413.804 138.464 413.592 118.146C413.486 110.294 415.183 107.535 418.419 105.785C428.393 100.533 438.632 97.88 454.017 94.6438C474.813 90.2406 512.374 87.5349 541.605 90.1875C570.837 92.8401 588.556 97.7739 611.793 105.625C570.837 111.833 558.211 116.024 545.797 121.276C533.383 126.528 524.682 131.249 516.777 136.979C507.918 143.345 500.65 151.356 497.095 158.995C493.488 166.582 490.941 176.98 491.366 182.285C523.568 178.677 577.309 178.73 577.309 178.73C615.613 179.261 629.035 181.542 666.808 187.961L666.861 188.014Z" fill="#004975" fill-opacity="0.1"/>
</g>
<defs>
<clipPath id="clip0_166_9">
<rect width="1555" height="1689" fill="white"/>
</clipPath>
</defs>
</svg>
