<svg width="44" height="44" viewBox="0 0 44 44" fill="none" xmlns="http://www.w3.org/2000/svg">
<path d="M7.33333 34.8333C6.842 34.8333 6.41361 34.6506 6.04817 34.2851C5.68272 33.9197 5.5 33.4913 5.5 32.9999V25.1019H13.75V26.9353H15.5833V25.1019H28.4167V26.9353H30.25V25.1019H38.5V32.9999C38.5 33.4913 38.3173 33.9197 37.9518 34.2851C37.5864 34.6506 37.158 34.8333 36.6667 34.8333H7.33333ZM5.82083 23.2686L9.94217 13.9058C10.0766 13.5623 10.2905 13.2977 10.5838 13.1119C10.8772 12.9262 11.1992 12.8333 11.55 12.8333H15.0187V10.7176C15.0187 10.2263 15.202 9.7985 15.5687 9.43428C15.9353 9.07005 16.3631 8.88672 16.852 8.88428H27.148C27.6393 8.88428 28.0671 9.06761 28.4313 9.43428C28.798 9.7985 28.9813 10.2263 28.9813 10.7176V12.8333H32.45C32.8008 12.8333 33.1228 12.9262 33.4162 13.1119C33.7095 13.2977 33.9234 13.5623 34.0578 13.9058L38.1792 23.2686H30.25V21.4353H28.4167V23.2686H15.5833V21.4353H13.75V23.2686H5.82083ZM16.852 12.8333H27.148V10.7176H16.852V12.8333Z" fill="#15508B"/>
</svg>
