<svg width="44" height="44" viewBox="0 0 44 44" fill="none" xmlns="http://www.w3.org/2000/svg">
<path d="M25.9784 25.1351L28.5451 20.6984C28.7101 20.4234 28.6368 20.0751 28.3984 19.8734L25.6851 17.7467C25.7401 17.3434 25.7768 16.9217 25.7768 16.5001C25.7768 16.0784 25.7401 15.6567 25.6851 15.2351L28.3984 13.1084C28.6368 12.9067 28.7101 12.5584 28.5451 12.2834L25.9784 7.84675C25.8134 7.57175 25.4834 7.46175 25.1901 7.57175L22.0001 8.85508C21.3401 8.34175 20.6251 7.92008 19.8368 7.59008L19.3601 4.19841C19.3293 4.05014 19.249 3.91673 19.1324 3.82012C19.0158 3.7235 18.8698 3.66941 18.7184 3.66675H13.5851C13.2734 3.66675 12.9984 3.90508 12.9434 4.21675L12.4668 7.60841C11.6968 7.93841 10.9634 8.36008 10.3034 8.87341L7.11342 7.59008C6.82009 7.48008 6.49009 7.59008 6.32509 7.86508L3.75842 12.3017C3.59342 12.5767 3.66675 12.9251 3.90509 13.1267L6.61842 15.2534C6.56342 15.6567 6.52675 16.0784 6.52675 16.5001C6.52675 16.9217 6.56342 17.3434 6.61842 17.7651L3.90509 19.8917C3.66675 20.0934 3.59342 20.4417 3.75842 20.7167L6.32509 25.1534C6.49009 25.4284 6.82009 25.5384 7.11342 25.4284L10.3034 24.1451C10.9634 24.6584 11.6784 25.0801 12.4668 25.4101L12.9434 28.8017C12.9984 29.0951 13.2734 29.3334 13.5851 29.3334H18.7184C19.0301 29.3334 19.3051 29.0951 19.3601 28.7834L19.8368 25.3917C20.6068 25.0617 21.3401 24.6401 22.0001 24.1267L25.1901 25.4101C25.4834 25.5201 25.8134 25.4101 25.9784 25.1351ZM16.1518 20.1667C14.1351 20.1667 12.4851 18.5167 12.4851 16.5001C12.4851 14.4834 14.1351 12.8334 16.1518 12.8334C18.1684 12.8334 19.8184 14.4834 19.8184 16.5001C19.8184 18.5167 18.1684 20.1667 16.1518 20.1667ZM40.1868 34.2284L38.4268 32.8717C38.4634 32.6151 38.5001 32.3401 38.5001 32.0651C38.5001 31.7901 38.4818 31.5151 38.4268 31.2584L40.1684 29.9017C40.3151 29.7734 40.3701 29.5534 40.2601 29.3701L38.6101 26.5284C38.5184 26.3451 38.2984 26.2901 38.0968 26.3451L36.0618 27.1701C35.6401 26.8401 35.1818 26.5651 34.6684 26.3634L34.3568 24.2001C34.3495 24.1021 34.3061 24.0103 34.2349 23.9425C34.1638 23.8748 34.07 23.8359 33.9718 23.8334H30.6901C30.4884 23.8334 30.3051 23.9801 30.2868 24.1817L29.9751 26.3451C29.4801 26.5651 29.0034 26.8217 28.5818 27.1517L26.5468 26.3267C26.4533 26.2916 26.3505 26.2907 26.2565 26.3243C26.1625 26.3579 26.0834 26.4237 26.0334 26.5101L24.3834 29.3517C24.2918 29.5351 24.3101 29.7551 24.4751 29.8834L26.2168 31.2401C26.1411 31.7752 26.1411 32.3183 26.2168 32.8534L24.4751 34.2101C24.3284 34.3384 24.2734 34.5584 24.3834 34.7417L26.0334 37.5834C26.1251 37.7667 26.3451 37.8217 26.5468 37.7667L28.5818 36.9417C29.0034 37.2717 29.4618 37.5467 29.9751 37.7484L30.2868 39.9117C30.3234 40.1134 30.4884 40.2601 30.6901 40.2601H33.9718C34.1734 40.2601 34.3568 40.1134 34.3751 39.9117L34.6868 37.7484C35.1818 37.5284 35.6584 37.2717 36.0618 36.9417L38.1151 37.7667C38.2984 37.8401 38.5184 37.7667 38.6284 37.5834L40.2784 34.7417C40.3884 34.5767 40.3334 34.3567 40.1868 34.2284ZM32.3218 34.5217C31.9966 34.5216 31.6747 34.4575 31.3743 34.3329C31.074 34.2084 30.8011 34.0259 30.5713 33.7959C30.3415 33.5659 30.1592 33.2929 30.0349 32.9925C29.9106 32.692 29.8466 32.3701 29.8468 32.0449C29.8469 31.7198 29.911 31.3978 30.0356 31.0975C30.1601 30.7971 30.3426 30.5243 30.5726 30.2944C30.8026 30.0646 31.0756 29.8823 31.376 29.758C31.6765 29.6337 31.9984 29.5698 32.3236 29.5699C32.9802 29.5702 33.6099 29.8312 34.0741 30.2957C34.5382 30.7602 34.7988 31.3901 34.7986 32.0467C34.7983 32.7034 34.5373 33.3331 34.0728 33.7972C33.6083 34.2614 32.9784 34.522 32.3218 34.5217Z" fill="#15508B"/>
</svg>
